<svg width="68" height="68" viewBox="0 0 68 68" fill="none" xmlns="http://www.w3.org/2000/svg">
<g filter="url(#filter0_d_20935_13)">
<path d="M41.2461 0.80931L39.2578 0.066386C39.0019 -0.049935 38.7498 -0.0133545 38.5047 0.17582C38.2587 0.365148 38.0927 0.649369 38.0073 1.02802L26.0487 57.4419C25.9634 57.8207 25.9901 58.1779 26.129 58.5125C26.2679 58.8477 26.476 59.0734 26.7543 59.1898L28.742 59.933C28.9985 60.0502 29.2497 60.0135 29.4955 59.824C29.7414 59.6338 29.9071 59.3505 29.9924 58.9724L41.9513 2.55765C42.0365 2.17899 42.01 1.82176 41.8709 1.48642C41.7319 1.15123 41.524 0.925478 41.2461 0.80931Z" fill="#2352DE"/>
<path d="M23 10.743C23 10.3523 22.891 10.0062 22.6734 9.70586L21.041 7.45121C20.8234 7.15067 20.573 7 20.2901 7C20.0072 7 19.7567 7.15083 19.5392 7.45121L4.32656 28.4632C4.10863 28.7637 4 29.1096 4 29.5003C4 29.891 4.10897 30.2369 4.32656 30.5373L19.5391 51.5493C19.7566 51.8503 20.0066 52 20.29 52C20.5733 52 20.8234 51.8498 21.0408 51.5493L22.6733 49.2959C22.8909 48.9955 22.9999 48.6495 22.9999 48.2583C22.9999 47.868 22.8909 47.5221 22.6733 47.2218L9.84372 29.5003L22.6734 11.7801C22.8914 11.4798 23 11.1337 23 10.743Z" fill="#2352DE"/>
<path d="M63.6736 28.4629L48.4597 7.45121C48.2422 7.15082 47.9916 7 47.7092 7C47.4258 7 47.1762 7.15082 46.9579 7.45121L45.326 9.70567C45.1085 10.0062 45 10.3516 45 10.7428C45 11.134 45.1084 11.4795 45.326 11.7799L58.1568 29.5004L45.326 47.2218C45.1085 47.5222 45 47.8682 45 48.2583C45 48.6497 45.1084 48.9955 45.326 49.2959L46.9579 51.5493C47.1762 51.8503 47.4259 52 47.7092 52C47.9917 52 48.2422 51.8498 48.4597 51.5493L63.6736 30.5377C63.8913 30.2373 64 29.8908 64 29.5001C64 29.1092 63.8913 28.7633 63.6736 28.4629Z" fill="#2352DE"/>
</g>
<defs>
<filter id="filter0_d_20935_13" x="0" y="0" width="68" height="68" filterUnits="userSpaceOnUse" color-interpolation-filters="sRGB">
<feFlood flood-opacity="0" result="BackgroundImageFix"/>
<feColorMatrix in="SourceAlpha" type="matrix" values="0 0 0 0 0 0 0 0 0 0 0 0 0 0 0 0 0 0 127 0" result="hardAlpha"/>
<feOffset dy="4"/>
<feGaussianBlur stdDeviation="2"/>
<feComposite in2="hardAlpha" operator="out"/>
<feColorMatrix type="matrix" values="0 0 0 0 0 0 0 0 0 0 0 0 0 0 0 0 0 0 0.25 0"/>
<feBlend mode="normal" in2="BackgroundImageFix" result="effect1_dropShadow_20935_13"/>
<feBlend mode="normal" in="SourceGraphic" in2="effect1_dropShadow_20935_13" result="shape"/>
</filter>
</defs>
</svg>
