<?xml version="1.0" encoding="utf-8"?><svg viewBox="0 0 32 32" xmlns="http://www.w3.org/2000/svg" xmlns:xlink="http://www.w3.org/1999/xlink"><style>:root>svg{display:none}:root>svg:target{display:block}</style><svg fill="none" viewBox="0 0 25 17" id="icon-btn" xmlns="http://www.w3.org/2000/svg"><path fill="#63A60E" d="M0 0h24.896v1H0zM0 8h19.917v1H0zM0 16h24.896v1H0z"/></svg><svg fill="none" viewBox="0 0 32 31" id="icon-cart" xmlns="http://www.w3.org/2000/svg"><path d="M31.798 4.039a.923.923 0 00-.721-.347H6.509L5.822.715A.923.923 0 004.923 0h-4a.923.923 0 000 1.846H4.19l4.663 20.208c.097.419.47.715.9.715h18.494a.923.923 0 100-1.846h-17.76l-.71-3.077h18.532c.431 0 .806-.3.9-.72l2.77-12.308a.923.923 0 00-.18-.78zM27.569 16H9.35L6.937 5.538h22.987L27.57 16zM13.538 24a3.388 3.388 0 00-3.384 3.385 3.388 3.388 0 003.384 3.384 3.388 3.388 0 003.385-3.384A3.388 3.388 0 0013.538 24zm0 4.923A1.54 1.54 0 0112 27.385c0-.849.69-1.539 1.538-1.539.849 0 1.539.69 1.539 1.539a1.54 1.54 0 01-1.539 1.538zM24.615 24a3.388 3.388 0 00-3.384 3.385 3.388 3.388 0 003.384 3.384A3.388 3.388 0 0028 27.385 3.388 3.388 0 0024.615 24zm0 4.923a1.54 1.54 0 01-1.538-1.538c0-.849.69-1.539 1.538-1.539.849 0 1.539.69 1.539 1.539a1.54 1.54 0 01-1.539 1.538z" fill="#fff"/></svg><svg viewBox="0 0 32 22" id="icon-del" xmlns="http://www.w3.org/2000/svg"><path d="M31.917 13.372l-1.62-2.482a3.864 3.864 0 00-3.25-1.753h-4.19V6.722a2.674 2.674 0 00-2.669-2.673h-7.841C11.907 1.747 9.884 0 7.459 0a4.988 4.988 0 00-2.757 9.137H.508a.508.508 0 000 1.018h5.08v1.018H3.554a.508.508 0 000 1.017h2.032v1.018H.508a.508.508 0 000 1.018h5.08v2.254a2.552 2.552 0 00-1.525 2.332v.502c0 .282.228.51.509.51h4.505A2.812 2.812 0 0011.809 22c1.33 0 2.445-.932 2.733-2.177h9.773A2.813 2.813 0 0027.048 22c1.329 0 2.444-.932 2.733-2.177h1.711c.28 0 .508-.227.508-.509v-5.663a.51.51 0 00-.083-.279zM3.497 4.988a3.971 3.971 0 013.962-3.97 3.97 3.97 0 010 7.94 3.971 3.971 0 01-3.963-3.97zm3.106 9.238H7.62a.508.508 0 000-1.018H6.603V12.19h3.556a.508.508 0 000-1.017H6.603v-1.018h6.603a.508.508 0 000-1.018h-2.99a4.987 4.987 0 002.218-4.07h7.755c.91 0 1.652.743 1.652 1.655v9.54H6.603v-2.036zm15.238 4.58H14.59a2.803 2.803 0 00-.722-1.527h7.974v1.526zM6.61 17.278h3.142a2.803 2.803 0 00-.721 1.526H5.079a1.534 1.534 0 011.53-1.526zm5.2 3.703a1.796 1.796 0 010-3.59 1.796 1.796 0 010 3.59zm15.238 0a1.796 1.796 0 010-3.59 1.796 1.796 0 010 3.59zm3.936-2.177h-1.157a2.812 2.812 0 00-2.78-2.43 2.812 2.812 0 00-2.779 2.43h-1.41v-8.65h4.188c.976 0 1.874.483 2.401 1.29l1.537 2.357v5.003z"/><path d="M27.878 19.187a.832.832 0 11-1.663.002.832.832 0 011.663-.002zM12.64 19.187a.832.832 0 11-1.663.002.832.832 0 011.663-.002zM8.127 4.988V2.76a.508.508 0 10-1.016 0v2.06L6.074 6.247a.509.509 0 00.821.6L8.03 5.287a.51.51 0 00.097-.3zM26.876 10.664h-.971a.508.508 0 00-.508.509v3.562c0 .28.227.508.508.508h3.418a.874.874 0 00.764-.44.875.875 0 00.003-.881l-1.187-2.08a2.339 2.339 0 00-2.027-1.178zm-.463 3.562v-2.544h.463c.473 0 .911.255 1.145.665l1.072 1.879h-2.68z"/></svg><svg fill="none" viewBox="0 0 32 32" id="icon-facebook" xmlns="http://www.w3.org/2000/svg"><g clip-path="url(#dclip0_1922_1581)"><path d="M21.33 5.313h2.92V.225C23.748.156 22.014 0 19.996 0c-4.212 0-7.098 2.65-7.098 7.519V12H8.25v5.688h4.648V32h5.699V17.69h4.46L23.764 12h-5.17V8.083c.002-1.644.445-2.77 2.735-2.77z" fill="#fff"/></g><defs><clipPath id="dclip0_1922_1581"><path fill="#fff" d="M0 0h32v32H0z"/></clipPath></defs></svg><svg fill="none" viewBox="0 0 32 29" id="icon-heart" xmlns="http://www.w3.org/2000/svg"><path d="M29.665 2.777C28.087.987 25.897 0 23.5 0c-3.372 0-5.506 2.014-6.703 3.703-.311.438-.575.878-.797 1.292a12.245 12.245 0 00-.797-1.292C14.006 2.013 11.872 0 8.5 0 6.103 0 3.913.986 2.335 2.777.829 4.486 0 6.774 0 9.22c0 2.662 1.04 5.139 3.272 7.793 1.994 2.373 4.864 4.818 8.187 7.65a385.452 385.452 0 013.883 3.34l.04.035a.935.935 0 001.236 0l.04-.035c1.364-1.193 2.644-2.284 3.883-3.34 3.323-2.832 6.193-5.277 8.187-7.65C30.96 14.36 32 11.883 32 9.22c0-2.446-.83-4.734-2.335-6.443zm-10.34 20.46c-1.068.909-2.167 1.845-3.325 2.852-1.158-1.007-2.257-1.943-3.325-2.853-6.503-5.542-10.8-9.203-10.8-14.016 0-1.99.663-3.837 1.866-5.203A6.258 6.258 0 018.5 1.875c2.57 0 4.232 1.584 5.174 2.912a11.113 11.113 0 011.435 2.854.937.937 0 001.782 0c.15-.461.591-1.662 1.436-2.854.94-1.328 2.602-2.912 5.173-2.912 1.851 0 3.541.76 4.759 2.142 1.203 1.366 1.866 3.213 1.866 5.203 0 4.813-4.297 8.474-10.8 14.016z" fill="#fff"/></svg><svg fill="none" viewBox="0 0 32 32" id="icon-instagram" xmlns="http://www.w3.org/2000/svg"><g clip-path="url(#fclip0_1922_1573)" fill="#fff"><path d="M16.005 7.784a8.21 8.21 0 00-8.21 8.21 8.21 8.21 0 008.21 8.211 8.21 8.21 0 008.211-8.21 8.21 8.21 0 00-8.21-8.21zm0 13.54a5.328 5.328 0 01-5.329-5.33 5.328 5.328 0 015.33-5.329 5.328 5.328 0 015.329 5.33 5.327 5.327 0 01-5.33 5.33z"/><path d="M22.597.101c-2.944-.137-10.236-.13-13.182 0C6.825.223 4.54.848 2.7 2.69-.377 5.767.016 9.913.016 15.995c0 6.224-.347 10.274 2.684 13.305 3.09 3.088 7.296 2.684 13.305 2.684 6.166 0 8.294.004 10.474-.84 2.964-1.15 5.201-3.8 5.42-8.559.138-2.945.13-10.236 0-13.182C31.635 3.785 28.62.379 22.597.1zm4.66 27.163C25.24 29.28 22.441 29.1 15.967 29.1c-6.667 0-9.34.099-11.291-1.857-2.247-2.236-1.84-5.827-1.84-11.27 0-7.367-.756-12.673 6.637-13.051 1.699-.06 2.199-.08 6.475-.08l.06.04c7.105 0 12.68-.744 13.015 6.648.076 1.686.093 2.193.093 6.462-.001 6.59.124 9.279-1.859 11.27z"/><path d="M24.541 9.379a1.919 1.919 0 100-3.838 1.919 1.919 0 000 3.838z"/></g><defs><clipPath id="fclip0_1922_1573"><path fill="#fff" d="M0 0h32v32H0z"/></clipPath></defs></svg><svg fill="none" viewBox="0 0 16 2" id="icon-minus" xmlns="http://www.w3.org/2000/svg"><path d="M15.333 0H.667a.667.667 0 100 1.333h14.666a.667.667 0 100-1.333z" fill="#fff"/></svg><svg fill="none" viewBox="0 0 19 32" id="icon-next" xmlns="http://www.w3.org/2000/svg"><path d="M18.31 14.985L2.297.392a1.35 1.35 0 00-1.903 0 1.335 1.335 0 000 1.894L15.442 16 .395 29.714a1.335 1.335 0 000 1.894 1.35 1.35 0 001.904 0l16.013-14.593c.28-.279.4-.648.381-1.014a1.33 1.33 0 00-.383-1.016z" fill="#505050"/></svg><svg fill="none" viewBox="0 0 22 22" id="icon-phone" xmlns="http://www.w3.org/2000/svg"><path d="M21.367 16.517l-3.18-3.195a2.26 2.26 0 00-1.61-.662 2.37 2.37 0 00-1.69.707l-1.238 1.243c-.962-.537-2.24-1.275-3.567-2.608C8.756 10.67 8.02 9.389 7.483 8.418l1.24-1.244c.92-.927.94-2.414.041-3.315L5.585.665A2.25 2.25 0 003.975 0c-.622 0-1.21.24-1.661.678C2.041.898.671 2.114.16 4.62c-.715 3.507.928 6.881 5.67 11.647C11.128 21.587 15.65 22 16.91 22c.263 0 .42-.016.463-.021 2.47-.291 3.355-1.393 4.001-2.198.837-1.043.834-2.415-.007-3.264zM20.31 18.92c-.607.757-1.18 1.471-3.097 1.697 0 0-.105.012-.304.012-1.127 0-5.188-.385-10.114-5.332C2.422 10.902.887 7.888 1.498 4.895c.445-2.186 1.627-3.115 1.673-3.15l.041-.03.036-.036c.197-.199.456-.308.727-.308.247 0 .476.093.644.263L7.8 4.828c.366.368.347.985-.043 1.377l-1.4 1.406-.024.025c-.365.404-.322.95-.12 1.305.58 1.052 1.374 2.493 2.904 4.03 1.525 1.532 2.957 2.33 4.002 2.911.104.06.32.158.59.158.32 0 .612-.135.83-.383l1.314-1.32c.196-.197.454-.306.725-.306.248 0 .477.093.646.261l3.177 3.193c.404.407.237 1.03-.088 1.435zM13.328 3.36c1.173.135 2.554.849 3.518 1.818.974.977 1.686 2.379 1.814 3.57a.684.684 0 00.753.607.685.685 0 00.605-.755c-.163-1.506-1.008-3.188-2.206-4.392-1.187-1.192-2.845-2.04-4.328-2.21a.685.685 0 00-.156 1.362zM12.69 6.232c.635.073 1.513.546 2.088 1.124.58.582 1.051 1.473 1.12 2.117a.684.684 0 00.753.607.685.685 0 00.605-.755c-.119-1.1-.846-2.268-1.513-2.939-.662-.665-1.814-1.391-2.896-1.516a.685.685 0 00-.156 1.362z" fill="#fff"/></svg><svg fill="none" viewBox="0 0 16 16" id="icon-plus" xmlns="http://www.w3.org/2000/svg"><g clip-path="url(#jclip0_1922_1568)"><path d="M15.2 7.2H8.8V.8a.8.8 0 00-1.6 0v6.4H.8a.8.8 0 000 1.6h6.4v6.4a.8.8 0 001.6 0V8.8h6.4a.8.8 0 000-1.6z" fill="#fff"/></g><defs><clipPath id="jclip0_1922_1568"><path fill="#fff" d="M0 0h16v16H0z"/></clipPath></defs></svg><svg fill="none" viewBox="0 0 19 32" id="icon-prev" xmlns="http://www.w3.org/2000/svg"><path d="M.385 17.015l16.013 14.593a1.35 1.35 0 001.903 0 1.335 1.335 0 000-1.894L3.253 16 18.3 2.286a1.335 1.335 0 000-1.894 1.35 1.35 0 00-1.903 0L.383 14.985c-.28.279-.4.648-.381 1.014a1.33 1.33 0 00.383 1.016z" fill="#505050"/></svg><svg fill="none" viewBox="0 0 21 20" id="icon-search" xmlns="http://www.w3.org/2000/svg"><path d="M9.02 16.472C4.477 16.472.78 12.777.78 8.236S4.476 0 9.02 0c4.545 0 8.242 3.695 8.242 8.236s-3.697 8.236-8.242 8.236zm0-14.91c-3.682 0-6.679 2.994-6.679 6.674s2.997 6.675 6.68 6.675 6.68-2.995 6.68-6.675c0-3.68-2.997-6.675-6.68-6.675zm11.53 18.21a.78.78 0 000-1.105l-3.496-3.493a.782.782 0 00-1.105 1.104l3.496 3.493a.779.779 0 001.105 0z" fill="#31352B"/></svg><svg fill="none" viewBox="0 0 16 16" id="icon-star" xmlns="http://www.w3.org/2000/svg"><path d="M.023 5.796a.469.469 0 01.378-.32l4.96-.72L7.58.26a.469.469 0 01.84 0l2.219 4.495 4.96.72a.469.469 0 01.26.8l-3.59 3.499.848 4.94a.469.469 0 01-.68.494L8 12.877l-4.436 2.332a.469.469 0 01-.68-.494l.847-4.94-3.59-3.499a.469.469 0 01-.118-.48z" fill="#FFB800"/></svg><svg fill="none" viewBox="0 0 23 23" id="icon-tel" xmlns="http://www.w3.org/2000/svg"><path d="M21.463 16.589l-3.194-3.196a2.276 2.276 0 00-1.617-.662c-.64 0-1.242.252-1.698.708l-1.244 1.243c-.966-.537-2.25-1.275-3.583-2.609-1.332-1.332-2.07-2.612-2.61-3.583l1.244-1.244c.926-.927.945-2.415.043-3.316L5.61.737A2.266 2.266 0 003.993.072 2.39 2.39 0 002.324.75C2.05.97.674 2.186.161 4.69c-.718 3.507.932 6.882 5.695 11.648 5.322 5.32 9.865 5.733 11.13 5.733.264 0 .423-.017.465-.021 2.482-.291 3.37-1.393 4.02-2.198.84-1.043.837-2.416-.008-3.264zm-1.06 2.403c-.61.756-1.186 1.47-3.111 1.697-.001 0-.107.011-.306.011-1.132 0-5.211-.384-10.16-5.331C2.433 10.974.891 7.96 1.504 4.966c.448-2.185 1.635-3.114 1.682-3.15l.04-.03.036-.036a1.03 1.03 0 01.73-.307c.25 0 .479.093.648.263L7.834 4.9c.368.367.348.985-.043 1.377L6.384 7.683l-.023.024c-.367.404-.324.95-.122 1.306.583 1.052 1.382 2.493 2.918 4.03 1.532 1.531 2.97 2.33 4.02 2.911.104.06.321.158.593.158.32 0 .615-.136.832-.383l1.321-1.32c.197-.198.456-.306.728-.306.25 0 .48.093.649.261l3.192 3.193c.405.407.238 1.03-.09 1.435zM13.388 3.432c1.178.135 2.566.849 3.534 1.818.978.977 1.693 2.379 1.822 3.57a.686.686 0 101.364-.148c-.164-1.506-1.013-3.189-2.216-4.392-1.192-1.192-2.858-2.04-4.347-2.21a.686.686 0 10-.157 1.362zM12.748 6.304c.637.073 1.519.546 2.096 1.123.583.583 1.056 1.473 1.126 2.117a.686.686 0 101.363-.147c-.119-1.1-.849-2.269-1.52-2.94-.664-.664-1.821-1.39-2.909-1.516a.685.685 0 10-.156 1.363z" fill="#fff"/></svg><svg fill="none" viewBox="0 0 32 32" id="icon-telegram" xmlns="http://www.w3.org/2000/svg"><g clip-path="url(#oclip0_1922_1577)"><path d="M12.556 20.241l-.53 7.446c.758 0 1.086-.326 1.48-.716l3.55-3.394 7.357 5.388c1.35.752 2.3.356 2.664-1.24l4.83-22.63.001-.002c.428-1.994-.721-2.774-2.036-2.285L1.485 13.676c-1.937.752-1.908 1.832-.329 2.321l7.257 2.258L25.271 7.707c.793-.526 1.514-.235.921.29L12.556 20.241z" fill="#fff"/></g><defs><clipPath id="oclip0_1922_1577"><path fill="#fff" d="M0 0h32v32H0z"/></clipPath></defs></svg><svg fill="none" viewBox="0 0 25 32" id="icon-user" xmlns="http://www.w3.org/2000/svg"><path d="M22.678 19.943a12.5 12.5 0 00-4.085-3.779 9.242 9.242 0 003.093-6.902C21.686 4.155 17.531 0 12.424 0S3.162 4.155 3.162 9.262a9.242 9.242 0 003.092 6.902 12.5 12.5 0 00-4.085 3.779A12.322 12.322 0 000 26.936V32h24.848v-5.064c0-2.505-.75-4.923-2.17-6.993zM5.101 9.263c0-4.039 3.285-7.324 7.323-7.324s7.323 3.285 7.323 7.323-3.285 7.323-7.323 7.323S5.1 13.3 5.1 9.262zM1.939 30.06v-3.125c0-4.109 2.38-7.794 6.101-9.516a9.205 9.205 0 004.384 1.104c1.585 0 3.078-.4 4.383-1.104 3.721 1.722 6.101 5.407 6.101 9.516v3.125H1.94z" fill="#fff"/></svg><svg fill="none" viewBox="0 0 32 32" id="icon-youtube" xmlns="http://www.w3.org/2000/svg"><g clip-path="url(#qclip0_1922_1579)"><path d="M31.292 7.905l.04.262c-.387-1.372-1.43-2.43-2.757-2.816l-.028-.007c-2.495-.677-12.534-.677-12.534-.677S6 4.653 3.48 5.344A4.059 4.059 0 00.703 8.14l-.007.028c-.932 4.868-.939 10.717.041 15.93l-.041-.265c.387 1.372 1.43 2.43 2.757 2.816l.028.007c2.492.678 12.534.678 12.534.678s10.012 0 12.533-.678a4.058 4.058 0 002.779-2.795l.006-.028c.424-2.264.667-4.87.667-7.53l-.001-.295L32 15.7a43.01 43.01 0 00-.708-7.795zM12.811 20.868v-9.724l8.354 4.87-8.354 4.854z" fill="#fff"/></g><defs><clipPath id="qclip0_1922_1579"><path fill="#fff" d="M0 0h32v32H0z"/></clipPath></defs></svg></svg>